<?xml version="1.0" encoding="UTF-8" standalone="no"?>
<svg
   version="1.1"
   viewBox="0 0 1010.6666259765625 551.1111297607422"
   style="max-width: 100%;"
   id="svg226"
   sodipodi:docname="mint-overview.svg"
   inkscape:version="1.1.2 (0a00cf5, 2022-02-04)"
   xmlns:inkscape="http://www.inkscape.org/namespaces/inkscape"
   xmlns:sodipodi="http://sodipodi.sourceforge.net/DTD/sodipodi-0.dtd"
   xmlns="http://www.w3.org/2000/svg"
   xmlns:svg="http://www.w3.org/2000/svg">
  <sodipodi:namedview
     id="namedview228"
     pagecolor="#ffffff"
     bordercolor="#666666"
     borderopacity="1.0"
     inkscape:pageshadow="2"
     inkscape:pageopacity="0.0"
     inkscape:pagecheckerboard="0"
     showgrid="false"
     inkscape:zoom="0.59960425"
     inkscape:cx="420.27721"
     inkscape:cy="294.36082"
     inkscape:window-width="1366"
     inkscape:window-height="705"
     inkscape:window-x="0"
     inkscape:window-y="0"
     inkscape:window-maximized="1"
     inkscape:current-layer="svg226" />
  <!-- svg-source:excalidraw -->
  <defs
     id="defs4">
    <style
       id="style2">
      @font-face {
        font-family: &quot;Virgil&quot;;
        src: url(&quot;https://excalidraw.com/Virgil.woff2&quot;);
      }
      @font-face {
        font-family: &quot;Cascadia&quot;;
        src: url(&quot;https://excalidraw.com/Cascadia.woff2&quot;);
      }
    </style>
  </defs>
  <g
     stroke-linecap="round"
     transform="translate(10 10) rotate(0 85 41.66667175292969)"
     id="g10">
    <path
       d="M1.54 -0.75 C59.88 -0.98, 120.79 -0.86, 169.95 2 M0.18 0.02 C65.27 1.68, 131.79 0.61, 169.54 0.9 M170.48 0.14 C168.9 25.14, 170.54 48.95, 170.1 85.22 M169.04 -0.96 C170.75 29.33, 170.67 56.69, 170.8 82.95 M170.05 81.4 C105.95 81.96, 38.76 80.27, 0.86 82.45 M170.37 82.38 C123.33 84.14, 74.23 84.36, -0.71 82.9 M1.75 83.04 C-0.01 59.11, 0.56 35.93, -0.82 -0.72 M0.89 83.46 C-1.18 65.48, 0.59 47.13, 0.07 0.34"
       stroke="#000000"
       stroke-width="1"
       fill="none"
       id="path8" />
  </g>
  <g
     transform="translate(15 38.66667175292969) rotate(0 80 13)"
     id="g14">
    <text
       x="80"
       y="18"
       font-family="Architects Daughter"
       font-size="20px"
       fill="#000000"
       text-anchor="middle"
       style="white-space: pre;"
       direction="ltr"
       id="text12">Frontend</text>
  </g>
  <g
     stroke-linecap="round"
     transform="translate(302.22222900390625 12.222213745117188) rotate(0 90.55557250976562 41.66667175292969)"
     id="g18">
    <path
       d="M47.93 5.04 C58.35 1.86, 75.45 0.39, 88.69 0.21 C101.94 0.02, 115.42 1.63, 127.39 3.93 C139.36 6.23, 151.94 9.63, 160.54 14.01 C169.13 18.39, 175.82 24.16, 178.97 30.21 C182.12 36.26, 181.98 44.28, 179.45 50.3 C176.93 56.32, 171.84 61.56, 163.82 66.35 C155.81 71.14, 143.24 76.1, 131.37 79.04 C119.5 81.99, 105.44 83.87, 92.61 84.02 C79.79 84.17, 66.37 82.56, 54.42 79.93 C42.47 77.31, 29.61 72.79, 20.92 68.27 C12.22 63.75, 5.44 58.72, 2.24 52.82 C-0.96 46.93, -0.82 39, 1.71 32.91 C4.24 26.83, 8.54 21.34, 17.42 16.34 C26.3 11.33, 47.37 5.08, 55.01 2.89 C62.65 0.7, 62.74 2.53, 63.26 3.19 M84.78 0.07 C97.04 -0.47, 113.02 1.82, 125.16 4.29 C137.3 6.75, 148.91 10.41, 157.63 14.86 C166.34 19.32, 173.63 25.52, 177.46 31.01 C181.29 36.51, 182.87 41.93, 180.62 47.85 C178.37 53.78, 171.77 61.59, 163.96 66.56 C156.16 71.54, 145.17 74.89, 133.77 77.7 C122.38 80.51, 108.64 82.95, 95.61 83.42 C82.57 83.9, 67.47 82.73, 55.57 80.55 C43.67 78.37, 33.07 74.94, 24.22 70.32 C15.37 65.71, 6.39 58.53, 2.47 52.86 C-1.44 47.19, -1.62 41.98, 0.72 36.29 C3.05 30.6, 8.97 23.75, 16.48 18.7 C23.99 13.64, 34.17 9.13, 45.77 5.95 C57.38 2.76, 79.5 0.45, 86.12 -0.42 C92.74 -1.28, 85.79 0.21, 85.49 0.75"
       stroke="#000000"
       stroke-width="1"
       fill="none"
       id="path16" />
  </g>
  <g
     transform="translate(307.22222900390625 40.888885498046875) rotate(0 85.5 13)"
     id="g22">
    <text
       x="85.5"
       y="18"
       font-family="'Architects Daughter'"
       font-size="20px"
       fill="#000000"
       text-anchor="middle"
       style="white-space:pre"
       direction="ltr"
       id="text20">Signer Cluster</text>
  </g>
  <g
     stroke-linecap="round"
     transform="translate(535.5556030273438 12.222198486328125) rotate(0 92.22222900390625 40.55555725097656)"
     id="g26">
    <path
       d="M111.48 1.77 C124.32 2.52, 138.55 5.62, 149.07 9.15 C159.6 12.69, 168.6 17.85, 174.65 22.96 C180.7 28.06, 185.11 34, 185.36 39.78 C185.61 45.56, 182.08 52.44, 176.16 57.65 C170.24 62.86, 160.16 67.32, 149.84 71.04 C139.53 74.77, 127.08 78.33, 114.29 79.99 C101.51 81.64, 86.19 82.37, 73.12 80.98 C60.06 79.6, 46.39 75.3, 35.88 71.69 C25.36 68.07, 16.14 64.47, 10.02 59.29 C3.89 54.12, -0.79 46.52, -0.89 40.63 C-0.98 34.74, 3.76 29.28, 9.44 23.95 C15.13 18.62, 23.03 12.48, 33.23 8.65 C43.43 4.81, 55.54 1.86, 70.64 0.93 C85.74 0, 113.42 2.42, 123.83 3.08 C134.25 3.74, 133.74 4.21, 133.11 4.88 M56.02 3.83 C67.27 1.28, 83.24 -0.5, 96.71 -0.1 C110.17 0.29, 125.14 3.29, 136.8 6.21 C148.47 9.12, 159.03 12.61, 166.68 17.39 C174.34 22.16, 180.49 29.13, 182.75 34.85 C185 40.57, 183.95 46.2, 180.19 51.69 C176.43 57.18, 169 63.41, 160.2 67.78 C151.41 72.15, 139.67 75.74, 127.43 77.92 C115.19 80.1, 99.91 81.15, 86.78 80.87 C73.64 80.58, 60.45 79.04, 48.64 76.23 C36.83 73.42, 23.85 68.9, 15.91 63.99 C7.96 59.08, 2.95 52.64, 0.97 46.78 C-1 40.91, 0.52 34.15, 4.06 28.8 C7.6 23.45, 13.57 19.12, 22.21 14.67 C30.84 10.22, 49.81 4.11, 55.88 2.1 C61.94 0.09, 57.73 1.58, 58.6 2.59"
       stroke="#000000"
       stroke-width="1"
       fill="none"
       id="path24" />
  </g>
  <g
     transform="translate(540.5556030273438 39.77775573730469) rotate(0 87 13)"
     id="g30">
    <text
       x="87"
       y="18"
       font-family="Architects Daughter"
       font-size="20px"
       fill="#000000"
       text-anchor="middle"
       style="white-space: pre;"
       direction="ltr"
       id="text28">IPFS</text>
  </g>
  <g
     stroke-linecap="round"
     transform="translate(781.1112060546875 13.33331298828125) rotate(0 88 37.77777862548828)"
     id="g34">
    <path
       d="M60.38 1.5 C71.61 -0.64, 86.52 0.32, 99.02 1.13 C111.51 1.93, 124.74 3.57, 135.34 6.34 C145.93 9.1, 155.75 12.96, 162.57 17.7 C169.39 22.44, 174.86 29.23, 176.26 34.78 C177.66 40.32, 175.28 46.01, 170.96 50.95 C166.64 55.9, 159.4 60.72, 150.35 64.45 C141.3 68.18, 128.81 71.67, 116.69 73.35 C104.56 75.03, 90.31 75.02, 77.6 74.53 C64.89 74.04, 51.31 73.26, 40.42 70.38 C29.53 67.51, 18.97 62.05, 12.26 57.26 C5.56 52.47, 1.28 46.84, 0.21 41.63 C-0.86 36.41, 1.48 31.15, 5.85 25.96 C10.22 20.78, 17.29 14.73, 26.43 10.52 C35.57 6.32, 54.31 2.09, 60.7 0.76 C67.08 -0.58, 64.19 1.82, 64.74 2.52 M59.08 2.24 C70.19 -0.02, 86.01 -1.53, 98.61 -1.02 C111.22 -0.5, 124.14 2.07, 134.72 5.35 C145.3 8.63, 155.25 13.89, 162.09 18.67 C168.93 23.44, 174.49 28.77, 175.76 34 C177.02 39.23, 174 45.18, 169.69 50.05 C165.38 54.91, 158.72 59.27, 149.91 63.19 C141.11 67.12, 129 71.43, 116.88 73.61 C104.77 75.79, 90.03 76.92, 77.22 76.26 C64.41 75.61, 50.74 72.64, 40 69.67 C29.25 66.71, 19.31 62.81, 12.75 58.46 C6.19 54.1, 1.77 49.26, 0.61 43.54 C-0.55 37.81, 1.79 29.45, 5.78 24.1 C9.76 18.75, 15.49 15.34, 24.54 11.44 C33.59 7.54, 54.43 2.21, 60.07 0.71 C65.72 -0.78, 58.09 1.82, 58.42 2.45"
       stroke="#000000"
       stroke-width="1"
       fill="none"
       id="path32" />
  </g>
  <g
     transform="translate(786.1112060546875 38.11109161376953) rotate(0 83 13)"
     id="g38">
    <text
       x="83"
       y="18"
       font-family="Architects Daughter"
       font-size="20px"
       fill="#000000"
       text-anchor="middle"
       style="white-space: pre;"
       direction="ltr"
       id="text36">Evmos</text>
  </g>
  <g
     stroke-linecap="round"
     id="g44">
    <g
       transform="translate(86.66668701171875 93.33334350585938) rotate(0 0 223.8888931274414)"
       id="g42">
      <path
         d="M-0.23 0.15 C-0.32 75.08, -0.7 373.94, -0.83 448.53 M-1.82 -0.81 C-1.5 73.86, 0.92 371.84, 1.44 446.8"
         stroke="#000000"
         stroke-width="1"
         fill="none"
         id="path40" />
    </g>
  </g>
  <g
     stroke-linecap="round"
     id="g58">
    <g
       transform="translate(84.4444580078125 114.4444580078125) rotate(0 27.22222900390625 18.333335876464844)"
       id="g48">
      <path
         d="M-0.94 0.26 C8.14 2.94, 54.5 9.85, 55.22 15.83 C55.94 21.81, 11.78 32.51, 3.36 36.14 M0.76 -0.66 C9.69 2.19, 53.86 10.62, 54.68 16.93 C55.5 23.24, 13.95 34.08, 5.68 37.18"
         stroke="#000000"
         stroke-width="1"
         fill="none"
         id="path46" />
    </g>
    <g
       transform="translate(84.4444580078125 114.4444580078125) rotate(0 27.22222900390625 18.333335876464844)"
       id="g52">
      <path
         d="M27.46 22.06 C17.91 24.7, 10.73 32.82, 7.17 38.56 M26.85 20.83 C19.98 26.55, 12.62 31.87, 4.7 36.28"
         stroke="#000000"
         stroke-width="1"
         fill="none"
         id="path50" />
    </g>
    <g
       transform="translate(84.4444580078125 114.4444580078125) rotate(0 27.22222900390625 18.333335876464844)"
       id="g56">
      <path
         d="M33 39.63 C21.5 35.89, 12.32 37.69, 7.17 38.56 M32.4 38.39 C23.73 38.37, 14.57 37.99, 4.7 36.28"
         stroke="#000000"
         stroke-width="1"
         fill="none"
         id="path54" />
    </g>
  </g>
  <g
     stroke-linecap="round"
     id="g72">
    <g
       transform="translate(89.6666259765625 176.77779388427734) rotate(0 27.22222900390625 18.333335876464844)"
       id="g62">
      <path
         d="M0.85 0.22 C10.01 2.75, 53.33 9.91, 53.86 15.95 C54.39 21.99, 12.29 33.2, 4.02 36.47 M-0.17 -0.7 C9.5 1.89, 55.74 10.72, 56.27 17.12 C56.8 23.51, 11.68 34.51, 3.03 37.68"
         stroke="#000000"
         stroke-width="1"
         fill="none"
         id="path60" />
    </g>
    <g
       transform="translate(89.6666259765625 176.77779388427734) rotate(0 27.22222900390625 18.333335876464844)"
       id="g66">
      <path
         d="M24.99 20.62 C19.12 24.32, 15.55 27.98, 1.2 39.67 M25.41 21.12 C20.62 24.74, 15.06 28.23, 2.13 36.94"
         stroke="#000000"
         stroke-width="1"
         fill="none"
         id="path64" />
    </g>
    <g
       transform="translate(89.6666259765625 176.77779388427734) rotate(0 27.22222900390625 18.333335876464844)"
       id="g70">
      <path
         d="M30.28 38.26 C23.21 38.39, 18.56 38.43, 1.2 39.67 M30.7 38.76 C24.73 38.35, 17.97 37.85, 2.13 36.94"
         stroke="#000000"
         stroke-width="1"
         fill="none"
         id="path68" />
    </g>
  </g>
  <g
     transform="translate(157.00319,122.8889)"
     id="g76">
    <text
       x="0"
       y="14"
       font-family="'Architects Daughter'"
       font-size="16px"
       fill="#000000"
       text-anchor="start"
       style="white-space:pre"
       direction="ltr"
       id="text74">Design cells</text>
  </g>
  <g
     transform="translate(156.55548095703125 185.1111297607422) rotate(0 89 10)"
     id="g80">
    <text
       x="0"
       y="14"
       font-family="Architects Daughter"
       font-size="16px"
       fill="#000000"
       text-anchor="start"
       style="white-space: pre;"
       direction="ltr"
       id="text78">Build planet from cells</text>
  </g>
  <g
     stroke-linecap="round"
     id="g86">
    <g
       transform="translate(392.22222900390625 95.55555725097656) rotate(0 0 144.1131541185081)"
       id="g84">
      <path
         d="M-0.59 0.69 C-0.49 48.79, 0.6 240.71, 0.74 288.67 M1.3 0.01 C1.29 47.74, 0.47 238.47, 0.17 286.79"
         stroke="#000000"
         stroke-width="1"
         fill="none"
         id="path82" />
    </g>
  </g>
  <g
     stroke-linecap="round"
     id="g100">
    <g
       transform="translate(84.44442749023438 272.22222900390625) rotate(0 153.33335876464844 0)"
       id="g90">
      <path
         d="M-0.16 0.39 C51.11 0.36, 256.22 -0.92, 307.32 -1.08 M-1.7 -0.45 C49.5 -0.29, 255.51 -0.26, 306.71 -0.11"
         stroke="#000000"
         stroke-width="1"
         fill="none"
         id="path88" />
    </g>
    <g
       transform="translate(84.44442749023438 272.22222900390625) rotate(0 153.33335876464844 0)"
       id="g94">
      <path
         d="M279.16 11.19 C284.51 6.9, 293.05 5.66, 305.19 0.75 M278.76 9.37 C288.15 5.94, 296.98 3.59, 305.98 -0.36"
         stroke="#000000"
         stroke-width="1"
         fill="none"
         id="path92" />
    </g>
    <g
       transform="translate(84.44442749023438 272.22222900390625) rotate(0 153.33335876464844 0)"
       id="g98">
      <path
         d="M279.18 -9.33 C284.37 -7.99, 292.91 -3.61, 305.19 0.75 M278.79 -11.15 C287.99 -8.22, 296.81 -4.19, 305.98 -0.36"
         stroke="#000000"
         stroke-width="1"
         fill="none"
         id="path96" />
    </g>
  </g>
  <g
     transform="translate(143.33331298828125 240.77777099609375) rotate(0 76.5 10)"
     id="g104">
    <text
       x="0"
       y="14"
       font-family="Architects Daughter"
       font-size="16px"
       fill="#000000"
       text-anchor="start"
       style="white-space: pre;"
       direction="ltr"
       id="text102">Image + Metadata</text>
  </g>
  <g
     stroke-linecap="round"
     id="g110"
     transform="matrix(1.0897018,0,0,0.93080035,-56.65082,5.5219598)">
    <g
       transform="translate(631.11115,94.444443)"
       id="g108">
      <path
         d="m -0.53,1.04 c 0.02,47.5 0.97,235.86 1.23,282.9 M 1.4,0.55 C 1.27,47.78 0.21,234.8 0.12,282.14"
         stroke="#000000"
         stroke-width="1"
         fill="none"
         id="path106" />
    </g>
  </g>
  <g
     stroke-linecap="round"
     id="g124">
    <g
       transform="translate(394.44435119628906 307.7221984863281) rotate(0 119.6518291644752 0)"
       id="g114">
      <path
         d="M0.92 -0.75 C40.99 -0.86, 200.03 -0.51, 239.72 -0.39 M-0.05 1.47 C39.96 1.5, 199.29 0.97, 238.99 0.94"
         stroke="#000000"
         stroke-width="1"
         fill="none"
         id="path112" />
    </g>
    <g
       transform="translate(394.44435119628906 307.7221984863281) rotate(0 119.6518291644752 0)"
       id="g118">
      <path
         d="M209.57 11.95 C216.96 8.14, 224.39 6.8, 238.64 -0.38 M210.4 11.98 C217.35 8.28, 223.07 7.1, 238.89 0.45"
         stroke="#000000"
         stroke-width="1"
         fill="none"
         id="path116" />
    </g>
    <g
       transform="translate(394.44435119628906 307.7221984863281) rotate(0 119.6518291644752 0)"
       id="g122">
      <path
         d="M209.52 -8.57 C216.98 -7.41, 224.42 -3.78, 238.64 -0.38 M210.36 -8.54 C217.37 -7.95, 223.1 -4.84, 238.89 0.45"
         stroke="#000000"
         stroke-width="1"
         fill="none"
         id="path120" />
    </g>
  </g>
  <g
     transform="translate(427.77769470214844 274.0555114746094) rotate(0 76.5 10)"
     id="g128">
    <text
       x="0"
       y="14"
       font-family="Architects Daughter"
       font-size="16px"
       fill="#000000"
       text-anchor="start"
       style="white-space: pre;"
       direction="ltr"
       id="text126">Image + Metadata</text>
  </g>
  <g
     stroke-linecap="round"
     id="g142">
    <g
       transform="translate(631.1111450195312 357.7778015136719) rotate(0 -119.4444580078125 0)"
       id="g132">
      <path
         d="M-0.33 0.06 C-40.15 -0.1, -199.55 -0.57, -239.28 -0.4 M1.7 -0.95 C-38.28 -0.99, -200.26 0.88, -240.43 0.93"
         stroke="#000000"
         stroke-width="1"
         fill="none"
         id="path130" />
    </g>
    <g
       transform="translate(631.1111450195312 357.7778015136719) rotate(0 -119.4444580078125 0)"
       id="g136">
      <path
         d="M-212.21 -10.17 C-220.49 -6.44, -225.52 -4.05, -241.09 1.47 M-212.25 -9.68 C-219.59 -7.68, -227.02 -5.16, -240.31 1.63"
         stroke="#000000"
         stroke-width="1"
         fill="none"
         id="path134" />
    </g>
    <g
       transform="translate(631.1111450195312 357.7778015136719) rotate(0 -119.4444580078125 0)"
       id="g140">
      <path
         d="M-212.06 10.35 C-220.48 8.56, -225.55 5.42, -241.09 1.47 M-212.11 10.84 C-219.31 7.72, -226.78 5.12, -240.31 1.63"
         stroke="#000000"
         stroke-width="1"
         fill="none"
         id="path138" />
    </g>
  </g>
  <g
     transform="translate(484.3333740234375 333.0000305175781) rotate(0 16 10)"
     id="g146">
    <text
       x="0"
       y="14"
       font-family="Architects Daughter"
       font-size="16px"
       fill="#000000"
       text-anchor="start"
       style="white-space: pre;"
       direction="ltr"
       id="text144">CID</text>
  </g>
  <g
     stroke-linecap="round"
     id="g160">
    <g
       transform="translate(391.11114501953125 383.3333740234375) rotate(0 -153.33335876464844 0)"
       id="g150">
      <path
         d="M-0.75 -0.89 C-51.79 -0.9, -255.58 -1.2, -306.54 -1.04 M1.05 1.25 C-50.1 1.45, -256.05 -0.08, -307.42 -0.04"
         stroke="#000000"
         stroke-width="1"
         fill="none"
         id="path148" />
    </g>
    <g
       transform="translate(391.11114501953125 383.3333740234375) rotate(0 -153.33335876464844 0)"
       id="g154">
      <path
         d="M-280.68 -9.99 C-288.71 -7.34, -294.55 -6.29, -307.36 -1.37 M-279.53 -9.63 C-284.88 -8.41, -292.74 -4.95, -308.16 0.08"
         stroke="#000000"
         stroke-width="1"
         fill="none"
         id="path152" />
    </g>
    <g
       transform="translate(391.11114501953125 383.3333740234375) rotate(0 -153.33335876464844 0)"
       id="g158">
      <path
         d="M-280.76 10.53 C-288.59 7.58, -294.41 3.03, -307.36 -1.37 M-279.61 10.89 C-285.04 7.31, -292.88 5.97, -308.16 0.08"
         stroke="#000000"
         stroke-width="1"
         fill="none"
         id="path156" />
    </g>
  </g>
  <g
     transform="translate(181.111083984375 354.1111145019531) rotate(0 70 10)"
     id="g164">
    <text
       x="0"
       y="14"
       font-family="'Architects Daughter'"
       font-size="16px"
       fill="#000000"
       text-anchor="start"
       style="white-space:pre"
       direction="ltr"
       id="text162">CID + Signature</text>
  </g>
  <g
     stroke-linecap="round"
     id="g170"
     transform="matrix(1.0137853,0,0,0.98465518,-12.139752,1.8983926)">
    <g
       transform="translate(864.44446,88.888885)"
       id="g168">
      <path
         d="M 0.92,0.84 C 1.09,73.75 0.85,364.29 0.73,437.08 M -0.05,0.23 C 0.04,72.8 0.23,362.59 0.17,435.18"
         stroke="#000000"
         stroke-width="1"
         fill="none"
         id="path166" />
    </g>
  </g>
  <g
     stroke-linecap="round"
     id="g184">
    <g
       transform="translate(88.88888549804688 450) rotate(0 387.7777862548828 0)"
       id="g174">
      <path
         d="M-1.06 -0.63 C128.21 -0.64, 646.92 -0.57, 776.29 -0.58 M0.58 1.65 C129.7 1.84, 646.8 0.88, 775.73 0.65"
         stroke="#000000"
         stroke-width="1"
         fill="none"
         id="path172" />
    </g>
    <g
       transform="translate(88.88888549804688 450) rotate(0 387.7777862548828 0)"
       id="g178">
      <path
         d="M746.5 12.19 C756.68 6.86, 766.58 2.03, 774.69 -0.33 M748.32 10.75 C758.77 6.74, 769.4 4.31, 775.02 -0.29"
         stroke="#000000"
         stroke-width="1"
         fill="none"
         id="path176" />
    </g>
    <g
       transform="translate(88.88888549804688 450) rotate(0 387.7777862548828 0)"
       id="g182">
      <path
         d="M746.47 -8.33 C756.57 -6.34, 766.48 -3.85, 774.69 -0.33 M748.29 -9.77 C758.55 -6.14, 769.19 -0.92, 775.02 -0.29"
         stroke="#000000"
         stroke-width="1"
         fill="none"
         id="path180" />
    </g>
  </g>
  <g
     transform="translate(393.33331298828125 416.3333740234375) rotate(0 81.5 10)"
     id="g188">
    <text
       x="0"
       y="14"
       font-family="Architects Daughter"
       font-size="16px"
       fill="#000000"
       text-anchor="start"
       style="white-space: pre;"
       direction="ltr"
       id="text186">mintCell / mintPlanet</text>
  </g>
  <g
     stroke-linecap="round"
     id="g202">
    <g
       transform="translate(865.4444580078125 460.99999237060536) rotate(0 27.22222900390625 18.333335876464844)"
       id="g192">
      <path
         d="M-0.01 0.79 C8.87 3.4, 52.58 10.05, 53.45 16.23 C54.31 22.4, 13.5 34.23, 5.17 37.83 M-1.48 0.17 C7.75 2.88, 54.59 11.54, 55.63 17.53 C56.68 23.52, 13.52 33.04, 4.78 36.1"
         stroke="#000000"
         stroke-width="1"
         fill="none"
         id="path190" />
    </g>
    <g
       transform="translate(865.4444580078125 460.99999237060536) rotate(0 27.22222900390625 18.333335876464844)"
       id="g196">
      <path
         d="M27.98 18.72 C19.14 26.52, 14.95 28.6, 6.7 34.79 M26.55 21.02 C17.73 26.63, 8.44 32.52, 5.73 36.17"
         stroke="#000000"
         stroke-width="1"
         fill="none"
         id="path194" />
    </g>
    <g
       transform="translate(865.4444580078125 460.99999237060536) rotate(0 27.22222900390625 18.333335876464844)"
       id="g200">
      <path
         d="M32.96 36.45 C22.47 38.69, 16.72 35.21, 6.7 34.79 M31.54 38.75 C20.59 37.27, 9.31 36.08, 5.73 36.17"
         stroke="#000000"
         stroke-width="1"
         fill="none"
         id="path198" />
    </g>
  </g>
  <g
     transform="translate(927.6666259765625 469.4444351196288) rotate(0 36.5 10)"
     id="g206">
    <text
       x="0"
       y="14"
       font-family="Virgil, 'Segoe UI Emoji'"
       font-size="16px"
       fill="#000000"
       text-anchor="start"
       style="direction:ltr;fill:#000000;font-family:Architects Daughter;font-size:16px;text-anchor:start;white-space:pre"
       direction="ltr"
       id="text204"><tspan
         style="-inkscape-font-specification:Architects Daughter;font-family:Architects Daughter;font-size:16px;font-stretch:normal;font-style:normal;font-variant:normal;font-variant-caps:normal;font-variant-east-asian:normal;font-variant-ligatures:normal;font-variant-numeric:normal;font-weight:normal"
         id="tspan19587">Verify Sig</tspan></text>
  </g>
  <g
     stroke-linecap="round"
     id="g220"
     transform="matrix(1.0067573,0,0,1.0001626,-0.37193853,-0.08447159)">
    <g
       transform="translate(858.88892,518.55554)"
       id="g210">
      <path
         d="m 0.18,0.82 c -128.7,0.39 -643.58,0.27 -772.4,0.3 M -1.18,0.21 c -128.76,0.18 -642.74,-0.45 -771.4,-0.62"
         stroke="#000000"
         stroke-width="1"
         fill="none"
         id="path208" />
    </g>
    <g
       transform="translate(858.88892,518.55554)"
       id="g214">
      <path
         d="m -743,-8.78 c -8.02,2.27 -16.61,5.15 -27.82,6.68 m 25.87,-7.99 c -6.45,1.77 -12.17,3.43 -26.94,8.92"
         stroke="#000000"
         stroke-width="1"
         fill="none"
         id="path212" />
    </g>
    <g
       transform="translate(858.88892,518.55554)"
       id="g218">
      <path
         d="m -743.03,11.74 c -7.81,-3.85 -16.39,-7.09 -27.79,-13.84 m 25.84,12.54 c -6.38,-2.81 -12.1,-5.71 -26.91,-11.61"
         stroke="#000000"
         stroke-width="1"
         fill="none"
         id="path216" />
    </g>
  </g>
  <g
     transform="translate(394.94439697265625 491.44439697265625) rotate(0 83 10)"
     id="g224">
    <text
       x="0"
       y="14"
       font-family="Architects Daughter"
       font-size="16px"
       fill="#000000"
       text-anchor="start"
       style="white-space: pre;"
       direction="ltr"
       id="text222">Cell / Planet Minted!</text>
  </g>
  <text
     xml:space="preserve"
     style="font-style:normal;font-weight:normal;font-size:40px;line-height:1.25;font-family:sans-serif;fill:#000000;fill-opacity:1;stroke:none"
     x="652.54053"
     y="-120.39704"
     id="text58033"><tspan
       sodipodi:role="line"
       id="tspan58031"></tspan></text>
</svg>
